<mxfile host="app.diagrams.net" agent="Mozilla/5.0 (Macintosh; Intel Mac OS X 10_15_7) AppleWebKit/537.36 (KHTML, like Gecko) Chrome/128.0.0.0 Safari/537.36 Edg/128.0.0.0" version="24.7.14">
  <diagram id="5qNMg-CWW7gJeC52Xjr1" name="Page-1">
    <mxGraphModel dx="2946" dy="1183" grid="0" gridSize="10" guides="1" tooltips="1" connect="1" arrows="1" fold="1" page="1" pageScale="1" pageWidth="1169" pageHeight="827" background="#ffffff" math="0" shadow="0">
      <root>
        <mxCell id="0" />
        <mxCell id="1" parent="0" />
        <mxCell id="74Ja1isYXM9k_7vvSX5o-37" value="" style="group" parent="1" vertex="1" connectable="0">
          <mxGeometry x="220" y="504" width="730" height="140" as="geometry" />
        </mxCell>
        <mxCell id="74Ja1isYXM9k_7vvSX5o-1" value="" style="verticalLabelPosition=bottom;verticalAlign=top;html=1;shape=mxgraph.infographic.shadedCube;isoAngle=15;fillColor=#97D077;strokeColor=none;rounded=0;shadow=0;glass=1;sketch=0;fontFamily=Verdana;fontSize=19;fontColor=#719C59;" parent="74Ja1isYXM9k_7vvSX5o-37" vertex="1">
          <mxGeometry width="240" height="140" as="geometry" />
        </mxCell>
        <mxCell id="74Ja1isYXM9k_7vvSX5o-12" style="edgeStyle=none;rounded=0;orthogonalLoop=1;jettySize=auto;html=1;fontFamily=Verdana;fontSize=19;fontColor=#719C59;endArrow=none;endFill=0;strokeColor=#719C59;align=left;" parent="74Ja1isYXM9k_7vvSX5o-37" source="74Ja1isYXM9k_7vvSX5o-13" edge="1">
          <mxGeometry relative="1" as="geometry">
            <mxPoint x="760" y="10" as="targetPoint" />
            <Array as="points">
              <mxPoint x="270" y="10" />
            </Array>
          </mxGeometry>
        </mxCell>
        <mxCell id="74Ja1isYXM9k_7vvSX5o-13" value="" style="shape=waypoint;sketch=0;fillStyle=solid;size=6;pointerEvents=1;points=[];fillColor=none;resizable=0;rotatable=0;perimeter=centerPerimeter;snapToPoint=1;rounded=0;shadow=0;glass=1;fontFamily=Verdana;fontSize=19;fontColor=#719C59;strokeColor=#719C59;align=left;" parent="74Ja1isYXM9k_7vvSX5o-37" vertex="1">
          <mxGeometry x="190" y="40" width="40" height="40" as="geometry" />
        </mxCell>
        <mxCell id="74Ja1isYXM9k_7vvSX5o-16" value="" style="group" parent="74Ja1isYXM9k_7vvSX5o-37" vertex="1" connectable="0">
          <mxGeometry x="300" y="10" width="430" height="113" as="geometry" />
        </mxCell>
        <mxCell id="74Ja1isYXM9k_7vvSX5o-17" value="&lt;font size=&quot;1&quot; face=&quot;Helvetica&quot;&gt;&lt;b style=&quot;font-size: 18px;&quot;&gt;Data Acquisition&lt;/b&gt;&lt;/font&gt;" style="text;html=1;strokeColor=none;fillColor=none;align=left;verticalAlign=middle;whiteSpace=wrap;rounded=0;fontSize=16;fontFamily=Verdana;fontColor=#719C59;" parent="74Ja1isYXM9k_7vvSX5o-16" vertex="1">
          <mxGeometry width="158" height="30" as="geometry" />
        </mxCell>
        <mxCell id="74Ja1isYXM9k_7vvSX5o-18" value="&lt;pre style=&quot;font-size: 14px; line-height: 50%;&quot;&gt;&lt;span style=&quot;caret-color: rgb(0, 0, 0);&quot;&gt;&lt;font style=&quot;font-size: 14px;&quot; face=&quot;Helvetica&quot;&gt;Retrieving raw datasets,&lt;/font&gt;&lt;/span&gt;&lt;/pre&gt;&lt;pre style=&quot;font-size: 14px; line-height: 50%;&quot;&gt;&lt;span style=&quot;caret-color: rgb(0, 0, 0);&quot;&gt;&lt;font style=&quot;font-size: 14px;&quot; face=&quot;Helvetica&quot;&gt;Understanding the format, and&lt;/font&gt;&lt;/span&gt;&lt;/pre&gt;&lt;pre style=&quot;font-size: 14px; line-height: 50%;&quot;&gt;&lt;span style=&quot;caret-color: rgb(0, 0, 0);&quot;&gt;&lt;font style=&quot;font-size: 14px;&quot; face=&quot;Helvetica&quot;&gt;Ensuring all necessary files are downloaded&lt;/font&gt;&lt;/span&gt;&lt;/pre&gt;" style="text;html=1;strokeColor=none;fillColor=none;align=left;verticalAlign=middle;whiteSpace=wrap;rounded=0;fontFamily=Verdana;fontSize=12;textOpacity=60;" parent="1" vertex="1">
          <mxGeometry x="520" y="529" width="405" height="89" as="geometry" />
        </mxCell>
      </root>
    </mxGraphModel>
  </diagram>
</mxfile>
